<svg xmlns="http://www.w3.org/2000/svg" fill="none" viewBox="0 0 760 760">
  <path fill="#000" d="M379.7.02c-33.85 82.83-54.18 137.1-91.8 217.58 23.05 24.47 51.43 53 97.4 85.15-49.48-20.45-83.2-40.87-108.48-62.1C228.65 341.3 153.13 484.4 0 759.65c120.45-69.52 213.68-112.37 300.65-128.77a225 225 0 0 1-5.72-51.58l.12-3.77C297 498.3 337.1 439.08 384.62 443.1c47.53 4.02 84.5 69.8 82.68 147a221 221 0 0 1-4.95 41.4c86.07 16.8 178.38 59.5 297.13 128.13-23.46-43.1-44.28-82.03-64.33-119-31.37-24.36-64.2-56.13-131-90.5 45.98 11.97 78.77 25.77 104.43 41.14-203-377.72-219.28-428-288.93-591.27z"/>
</svg>
