<svg width="229" height="39" viewBox="0 0 229 39" fill="none" xmlns="http://www.w3.org/2000/svg">
<path d="M18.0079 0.77325L22.1433 1.29017V37.6471H18.5248L18.131 34.2256C17.1627 35.604 16.0468 36.6132 14.7833 37.2532C13.5361 37.8932 12.1986 38.2132 10.771 38.2132C8.52275 38.2132 6.66839 37.6471 5.20787 36.5148C3.74736 35.3825 2.66429 33.8071 1.95864 31.7886C1.253 29.7538 0.900182 27.3989 0.900182 24.724C0.900182 22.1312 1.30223 19.8174 2.10634 17.7825C2.91044 15.7312 4.06736 14.123 5.57711 12.9579C7.10326 11.7763 8.933 11.1856 11.0663 11.1856C13.9381 11.1856 16.252 12.203 18.0079 14.2379V0.77325ZM12.1494 14.5086C9.98326 14.5086 8.31762 15.3538 7.15249 17.044C5.98736 18.7343 5.4048 21.2943 5.4048 24.724C5.4048 31.485 7.48069 34.8656 11.6325 34.8656C13.093 34.8656 14.3484 34.4553 15.3986 33.6348C16.4489 32.7979 17.3186 31.8461 18.0079 30.7794V17.8317C17.3022 16.7815 16.4489 15.9691 15.4479 15.3948C14.4468 14.804 13.3474 14.5086 12.1494 14.5086ZM41.9022 11.1856C45.5617 11.1856 48.3268 12.4081 50.1976 14.8532C52.0684 17.2984 53.0037 20.5722 53.0037 24.6748C53.0037 27.3168 52.5771 29.6553 51.7237 31.6902C50.8704 33.725 49.615 35.325 47.9576 36.4902C46.3001 37.6389 44.2653 38.2132 41.853 38.2132C38.1935 38.2132 35.4202 36.9825 33.533 34.5209C31.6458 32.0594 30.7022 28.7938 30.7022 24.724C30.7022 22.0656 31.1289 19.7189 31.9822 17.684C32.8355 15.6327 34.0909 14.0409 35.7484 12.9086C37.4222 11.7599 39.4735 11.1856 41.9022 11.1856ZM41.9022 14.5579C39.6704 14.5579 37.9801 15.3866 36.8314 17.044C35.6991 18.7015 35.133 21.2615 35.133 24.724C35.133 28.1538 35.6909 30.6974 36.8068 32.3548C37.9391 33.9958 39.6212 34.8163 41.853 34.8163C44.0848 34.8163 45.7586 33.9876 46.8745 32.3302C48.0068 30.6727 48.573 28.1209 48.573 24.6748C48.573 21.2286 48.015 18.685 46.8991 17.044C45.7832 15.3866 44.1176 14.5579 41.9022 14.5579ZM82.1411 36.3425C81.255 36.9332 80.1801 37.3927 78.9165 37.7209C77.6529 38.0491 76.414 38.2132 75.1996 38.2132C72.4099 38.2132 70.2601 37.483 68.7504 36.0225C67.2406 34.562 66.4858 32.683 66.4858 30.3856V14.9271H60.5288V11.7271H66.4858V5.84402L70.6211 5.35171V11.7271H79.5811L79.0888 14.9271H70.6211V30.3363C70.6211 31.7804 70.9986 32.8799 71.7535 33.6348C72.5247 34.3897 73.7965 34.7671 75.5688 34.7671C76.537 34.7671 77.4314 34.6522 78.2519 34.4225C79.0724 34.1927 79.8355 33.8974 80.5411 33.5363L82.1411 36.3425ZM106.405 0.77325C107.8 0.77325 109.063 0.896327 110.195 1.14248C111.328 1.38863 112.403 1.73325 113.42 2.17633L112.091 5.25325C111.254 4.89222 110.36 4.62145 109.408 4.44094C108.472 4.26043 107.512 4.17017 106.528 4.17017C102.901 4.17017 101.088 5.60607 101.088 8.47786V13.7456H109.875L109.432 16.9948H101.088V37.6471H96.9524V16.9948H90.7739V13.7456H96.9524V8.57633C96.9524 6.96812 97.3627 5.58145 98.1832 4.41633C99.0201 3.2512 100.152 2.35684 101.58 1.73325C103.008 1.09325 104.616 0.77325 106.405 0.77325ZM130.447 1.38864C131.366 1.38864 132.096 1.66761 132.637 2.22556C133.195 2.78351 133.474 3.46453 133.474 4.26864C133.474 5.10556 133.195 5.8112 132.637 6.38556C132.096 6.94351 131.366 7.22248 130.447 7.22248C129.577 7.22248 128.863 6.94351 128.305 6.38556C127.747 5.8112 127.468 5.10556 127.468 4.26864C127.468 3.46453 127.747 2.78351 128.305 2.22556C128.863 1.66761 129.577 1.38864 130.447 1.38864ZM133.745 13.7456V34.3732H141.056V37.6471H121.61V34.3732H129.61V16.9948H121.856V13.7456H133.745ZM160.249 1.29017V31.2471C160.249 32.5271 160.643 33.4379 161.43 33.9794C162.234 34.5045 163.268 34.7671 164.532 34.7671C165.303 34.7671 166.042 34.685 166.747 34.5209C167.469 34.3568 168.183 34.1353 168.889 33.8563L169.996 36.884C169.291 37.2286 168.413 37.5322 167.363 37.7948C166.329 38.0738 165.155 38.2132 163.843 38.2132C161.545 38.2132 159.683 37.5815 158.255 36.3179C156.827 35.0379 156.113 33.2738 156.113 31.0256V4.56402H148.163V1.29017H160.249ZM182.937 26.1517C183.052 29.1548 183.839 31.3456 185.3 32.724C186.777 34.0861 188.516 34.7671 190.518 34.7671C191.848 34.7671 193.046 34.5702 194.112 34.1763C195.179 33.7825 196.287 33.1999 197.435 32.4286L199.38 35.1609C198.182 36.1127 196.804 36.8594 195.245 37.4009C193.686 37.9425 192.094 38.2132 190.469 38.2132C187.942 38.2132 185.792 37.6471 184.02 36.5148C182.264 35.3825 180.918 33.8071 179.983 31.7886C179.064 29.7538 178.605 27.3989 178.605 24.724C178.605 22.0984 179.064 19.7681 179.983 17.7332C180.918 15.6984 182.231 14.0984 183.922 12.9332C185.628 11.7681 187.63 11.1856 189.928 11.1856C193.193 11.1856 195.762 12.3179 197.632 14.5825C199.519 16.8471 200.463 19.9486 200.463 23.8871C200.463 24.3302 200.447 24.7486 200.414 25.1425C200.397 25.5363 200.381 25.8727 200.365 26.1517H182.937ZM189.977 14.5825C188.057 14.5825 186.449 15.2635 185.152 16.6256C183.856 17.9876 183.126 20.0963 182.962 22.9517H196.475C196.426 20.1784 195.819 18.0943 194.654 16.6994C193.489 15.2881 191.93 14.5825 189.977 14.5825ZM218.031 34.7917C220.033 34.7917 221.609 34.4225 222.757 33.684C223.906 32.9456 224.48 31.9445 224.48 30.6809C224.48 29.9097 224.333 29.2368 224.037 28.6625C223.758 28.0881 223.176 27.5712 222.29 27.1117C221.404 26.6358 220.041 26.1681 218.204 25.7086C216.415 25.2656 214.856 24.7568 213.527 24.1825C212.214 23.5917 211.188 22.8286 210.45 21.8932C209.728 20.9579 209.367 19.7435 209.367 18.2502C209.367 16.0676 210.277 14.3445 212.099 13.0809C213.92 11.8174 216.292 11.1856 219.213 11.1856C221.297 11.1856 223.11 11.4645 224.653 12.0225C226.212 12.5804 227.533 13.2532 228.616 14.0409L226.794 16.8471C225.826 16.1743 224.743 15.6245 223.545 15.1979C222.364 14.7548 220.936 14.5332 219.262 14.5332C217.227 14.5332 215.783 14.8532 214.93 15.4932C214.076 16.1168 213.65 16.9291 213.65 17.9302C213.65 18.7015 213.855 19.3415 214.265 19.8502C214.692 20.3425 215.406 20.7856 216.407 21.1794C217.408 21.5732 218.786 22.0081 220.542 22.484C222.232 22.9435 223.709 23.485 224.973 24.1086C226.236 24.7322 227.213 25.5527 227.902 26.5702C228.608 27.5712 228.96 28.8758 228.96 30.484C228.96 32.322 228.435 33.8153 227.385 34.964C226.335 36.0963 224.973 36.925 223.299 37.4502C221.641 37.9589 219.886 38.2132 218.031 38.2132C215.685 38.2132 213.683 37.8768 212.025 37.204C210.384 36.5148 209.006 35.6861 207.89 34.7179L210.253 31.9856C211.27 32.8225 212.435 33.5035 213.748 34.0286C215.077 34.5374 216.505 34.7917 218.031 34.7917Z" fill="#8800FF"/>
</svg>
